# xmcd
#
# Track frame offsets:
#	150
#	29417
#	50125
#	70362
#	96160
#	110142
#	128800
#	150220
#	173075
#	192652
#
# Disc length: 2866 seconds
#
# Revision: 1
# Processed by: cddbd v1.5.2PL0 Copyright (c) Steve Scherf et al.
# Submitted via: EZCDAudioConverter 8.0.2.1
#
DISCID=8d0b300a
DTITLE=Various Artist - Dạ Vũ Tình Hè 3
DYEAR=1992
DGENRE=Miscellaneous
TTITLE0=Kiều Nga - Thôi
TTITLE1=Lê Uyên - Mấy độ thu về
TTITLE2=Như Mai - Tango xanh
TTITLE3=Anh Sơn - Lạy trời con được bình yên
TTITLE4=Lệ Hằng - Tình gió mùa
TTITLE5=Ngọc Lan - Một đời yêu anh
TTITLE6=Như Mai - Mây lang thang
TTITLE7=Lệ Hằng - Dù tình yêu đã mất
TTITLE8=Elvis Phương - Và tôi cũng yêu em
TTITLE9=Ngọc Bích - Nỗi đau dịu dàng
EXTD=
EXTT0=
EXTT1=
EXTT2=
EXTT3=
EXTT4=
EXTT5=
EXTT6=
EXTT7=
EXTT8=
EXTT9=
PLAYORDER=
